<svg width="108" height="36" viewBox="0 0 108 36" fill="none" xmlns="http://www.w3.org/2000/svg">
<path d="M49.6522 27.513C47.9062 27.513 46.4302 27.234 45.2242 26.676C44.0182 26.118 43.1002 25.353 42.4702 24.381C41.8582 23.409 41.5522 22.293 41.5522 21.033H45.3052C45.3052 21.573 45.4492 22.086 45.7372 22.572C46.0252 23.058 46.4842 23.454 47.1142 23.76C47.7622 24.066 48.6082 24.219 49.6522 24.219C51.0562 24.219 52.1092 23.931 52.8112 23.355C53.5132 22.779 53.8642 22.077 53.8642 21.249C53.8642 20.565 53.5672 20.007 52.9732 19.575C52.3792 19.143 51.4612 18.873 50.2192 18.765L48.4912 18.63C46.6012 18.468 45.0892 17.883 43.9552 16.875C42.8392 15.849 42.2812 14.499 42.2812 12.825C42.2812 11.583 42.5692 10.503 43.1452 9.58499C43.7392 8.66699 44.5762 7.96499 45.6562 7.47899C46.7362 6.97499 47.9962 6.72299 49.4362 6.72299C50.9122 6.72299 52.1902 6.98399 53.2702 7.50599C54.3682 8.02799 55.2142 8.76599 55.8082 9.71999C56.4022 10.656 56.6992 11.763 56.6992 13.041H52.9462C52.9462 12.249 52.6492 11.547 52.0552 10.935C51.4792 10.323 50.6062 10.017 49.4362 10.017C48.2842 10.017 47.4292 10.296 46.8712 10.854C46.3132 11.412 46.0342 12.069 46.0342 12.825C46.0342 13.437 46.2502 13.977 46.6822 14.445C47.1322 14.895 47.8522 15.156 48.8422 15.228L50.5702 15.39C51.9742 15.516 53.1982 15.822 54.2422 16.308C55.3042 16.776 56.1322 17.424 56.7262 18.252C57.3202 19.08 57.6172 20.079 57.6172 21.249C57.6172 22.491 57.2842 23.589 56.6182 24.543C55.9702 25.479 55.0522 26.208 53.8642 26.73C52.6762 27.252 51.2722 27.513 49.6522 27.513ZM64.4436 27.378C62.8236 27.378 61.5276 26.964 60.5556 26.136C59.6016 25.308 59.1246 24.147 59.1246 22.653C59.1246 21.051 59.7006 19.872 60.8526 19.116C62.0226 18.342 63.5886 17.955 65.5506 17.955H68.5476V17.82C68.5476 16.146 67.7016 15.309 66.0096 15.309C65.5596 15.309 65.0196 15.318 64.3896 15.336C63.7596 15.354 63.1206 15.381 62.4726 15.417C61.8426 15.435 61.2756 15.462 60.7716 15.498V12.312C61.3836 12.258 62.1126 12.213 62.9586 12.177C63.8226 12.141 64.6146 12.123 65.3346 12.123C67.5846 12.123 69.2766 12.582 70.4106 13.5C71.5626 14.4 72.1386 15.867 72.1386 17.901V27H69.1686V24.192C68.5026 26.316 66.9276 27.378 64.4436 27.378ZM65.4966 24.705C66.0006 24.705 66.4776 24.615 66.9276 24.435C67.3776 24.237 67.7466 23.913 68.0346 23.463C68.3406 22.995 68.5116 22.365 68.5476 21.573V20.196H65.4966C64.6326 20.196 63.9666 20.412 63.4986 20.844C63.0486 21.258 62.8236 21.798 62.8236 22.464C62.8236 23.148 63.0486 23.697 63.4986 24.111C63.9666 24.507 64.6326 24.705 65.4966 24.705ZM87.3097 10.584C86.5717 10.584 86.0317 10.395 85.6897 10.017C85.3477 9.62099 85.1767 9.12599 85.1767 8.53199C85.1767 7.93799 85.3477 7.45199 85.6897 7.07399C86.0317 6.69599 86.5717 6.50699 87.3097 6.50699C88.0477 6.50699 88.5877 6.69599 88.9297 7.07399C89.2897 7.45199 89.4697 7.93799 89.4697 8.53199C89.4697 9.12599 89.2897 9.62099 88.9297 10.017C88.5877 10.395 88.0477 10.584 87.3097 10.584ZM75.9427 27V15.174H74.1337V12.42H75.9427V11.826C75.9427 10.152 76.4017 8.91899 77.3197 8.12699C78.2557 7.31699 79.6327 6.91199 81.4507 6.91199H82.9627V9.80099H81.1807C80.6227 9.80099 80.1907 9.95399 79.8847 10.26C79.5967 10.548 79.4527 10.962 79.4527 11.502V12.42H82.8277V15.174H79.4527V27H75.9427ZM85.9597 27V15.147H84.0967V12.339H89.7127V27H85.9597ZM97.6409 27.378C96.0209 27.378 94.7249 26.964 93.7529 26.136C92.7989 25.308 92.3219 24.147 92.3219 22.653C92.3219 21.051 92.8979 19.872 94.0499 19.116C95.2199 18.342 96.7859 17.955 98.7479 17.955H101.745V17.82C101.745 16.146 100.899 15.309 99.2069 15.309C98.7569 15.309 98.2169 15.318 97.5869 15.336C96.9569 15.354 96.3179 15.381 95.6699 15.417C95.0399 15.435 94.4729 15.462 93.9689 15.498V12.312C94.5809 12.258 95.3099 12.213 96.1559 12.177C97.0199 12.141 97.8119 12.123 98.5319 12.123C100.782 12.123 102.474 12.582 103.608 13.5C104.76 14.4 105.336 15.867 105.336 17.901V27H102.366V24.192C101.7 26.316 100.125 27.378 97.6409 27.378ZM98.6939 24.705C99.1979 24.705 99.6749 24.615 100.125 24.435C100.575 24.237 100.944 23.913 101.232 23.463C101.538 22.995 101.709 22.365 101.745 21.573V20.196H98.6939C97.8299 20.196 97.1639 20.412 96.6959 20.844C96.2459 21.258 96.0209 21.798 96.0209 22.464C96.0209 23.148 96.2459 23.697 96.6959 24.111C97.1639 24.507 97.8299 24.705 98.6939 24.705Z" fill="white"/>
<path fill-rule="evenodd" clip-rule="evenodd" d="M22.201 5.77472C22.201 3.82963 23.7805 2.25015 25.7256 2.25015C27.6707 2.25015 29.2502 3.82963 29.2502 5.77472C29.2502 7.71982 27.6707 9.2993 25.7256 9.2993C23.7805 9.2993 22.201 7.71982 22.201 5.77472ZM16.5702 20.9104L20.7969 15.4568L20.7384 15.4861C20.9724 15.1643 21.0162 14.7548 20.8554 14.3892C20.6959 14.0236 20.3435 13.7749 19.9647 13.7457C19.5684 13.7018 19.175 13.8773 18.9395 14.1991L15.4017 18.7766L11.3491 15.5883C11.1004 15.3983 10.8079 15.3237 10.5154 15.3544C10.2244 15.3983 9.96115 15.5577 9.78419 15.7916L5.45662 21.4237L5.36741 21.5553C5.11878 22.0219 5.23578 22.6215 5.67453 22.9447C5.87928 23.0763 6.09866 23.1641 6.34729 23.1641C6.68513 23.1787 7.00542 23.0017 7.21017 22.7253L10.8811 18L15.0492 21.1312L15.1809 21.2175C15.6489 21.4661 16.2339 21.3506 16.5702 20.9104ZM19.6707 4.85378C19.6122 5.21941 19.583 5.58502 19.583 5.95065C19.583 9.24123 22.2447 11.9015 25.5207 11.9015C25.8864 11.9015 26.2374 11.8591 26.6031 11.8006V23.6013C26.6031 28.5606 23.678 31.5001 18.7055 31.5001H7.89901C2.92502 31.5001 0 28.5606 0 23.6013V12.7804C0 7.80799 2.92502 4.85378 7.89901 4.85378H19.6707Z" fill="#0059F7"/>
</svg>
